<?xml version="1.0" encoding="UTF-8" standalone="no"?><!DOCTYPE svg PUBLIC "-//W3C//DTD SVG 1.1//EN" "http://www.w3.org/Graphics/SVG/1.1/DTD/svg11.dtd"><svg width="100%" height="100%" viewBox="0 0 1862 495" version="1.1" xmlns="http://www.w3.org/2000/svg" xmlns:xlink="http://www.w3.org/1999/xlink" xml:space="preserve" xmlns:serif="http://www.serif.com/" style="fill-rule:evenodd;clip-rule:evenodd;stroke-linejoin:round;stroke-miterlimit:2;"><rect id="Artboard1" x="0" y="0" width="1861.19" height="494.88" style="fill:none;"/><path d="M12.956,155.006l0,9.969l71.076,0l0,220.167l-71.076,0l0,9.869l179.995,0l0,-10.048l-28.985,0l0,-182.493c68.571,-47.464 115.27,-4.143 115.27,89.25c0,93.393 -55.392,171.153 -115.27,171.153l0,17.699c0,0 202.645,-37.602 206.13,-206.13c2.469,-119.411 -74.089,-192.007 -206.13,-93.227l0,-26.209l-151.01,0Z" style="fill:#8cf0ff;"/><path d="M525.456,134.932c53.554,0 118.947,26.707 109.629,112.281l-174.212,36.367c0.076,106.69 88.068,145.57 164.964,68.449l9.248,3.915c-137.441,126.198 -249.778,26.909 -244.853,-81.018c5.476,-119.994 83.672,-139.994 135.224,-139.994Zm-64.583,131.995l116.013,-21.894c5.455,-47.145 -15.832,-93.235 -57.557,-83.394c-58.716,13.848 -58.456,105.288 -58.456,105.288Z" style="fill:#8cf0ff;"/><path d="M917.536,255.553l0.123,114.547c52.37,-15.237 100.886,-112.764 46.85,-215.094c0,0 67.514,-50.019 96.773,8.543c47.918,95.907 -63.474,269.919 -223.066,231.389l-0.075,-32.446c-48.603,32.834 -117.381,50.805 -203.056,32.446l0,-10.048c0,0 33.403,10.092 71.076,7.041l0,-227.029l-71.076,0l0,-9.97l150.779,0l0.231,215.033c74.83,-46.5 45.569,-165.084 45.569,-165.084l6.115,0.012l0,-0.012l79.702,0l0.001,0.17l0.654,0.001c4.185,14.973 3.9,32.367 -0.6,50.501Z" style="fill:#8cefff;"/><path d="M1027.45,20.309l0,9.97l71.076,0l0,364.713c45.148,7.296 79.934,-10.102 79.934,-10.102l0,-182.42c68.571,-47.464 115.27,-18.939 115.27,64.457c0,182.432 -210.044,143.146 -266.28,117.963l0,10.048c60.557,30.726 352.188,52.801 357.14,-148.038c2.739,-111.076 -73.711,-152.772 -206.13,-65.685l0,-160.906l-151.01,0Z" style="fill:#8cf0ff;"/><path d="M1414.54,155.006l0,9.969l41.193,0l0,220.167l-71.076,0l0,9.869l222.167,0l0,-10.048l-71.157,0l0,-229.957l-121.127,0Zm86.584,-122.922c6.411,-2.595 2.777,24.058 8.469,27.129c12.638,6.82 21.233,20.183 21.233,35.539c0,22.272 -18.082,40.354 -40.354,40.354c-22.272,0 -40.354,-22.847 -40.354,-45.119c0,-22.272 18.722,-44.832 51.006,-57.903Z" style="fill:#8cf0ff;"/><path d="M1729.58,134.932c53.553,0 118.946,26.707 109.628,112.281l-174.212,36.367c0.076,106.69 88.068,145.57 164.965,68.449l9.247,3.915c-137.441,126.198 -249.778,26.909 -244.853,-81.018c5.476,-119.994 83.672,-139.994 135.225,-139.994Zm-64.584,131.995l116.013,-21.894c5.455,-47.145 -15.831,-93.235 -57.557,-83.394c-58.716,13.848 -58.456,105.288 -58.456,105.288Z" style="fill:#8cf0ff;"/></svg>